HIERARCHY
ROOT hip
{
  OFFSET 0 0 0
  CHANNELS 6 Xposition Yposition Zposition Zrotation Yrotation Xrotation
  JOINT abdomen
  {
    OFFSET 0 20.6881 -0.73152
    CHANNELS 3 Zrotation Xrotation Yrotation
    JOINT chest
    {
      OFFSET 0 11.7043 -0.48768
      CHANNELS 3 Zrotation Xrotation Yrotation
      JOINT neck
      {
        OFFSET 0 22.1894 -2.19456
        CHANNELS 3 Zrotation Xrotation Yrotation
        JOINT head
        {
          OFFSET -0.24384 7.07133 1.2192
          CHANNELS 3 Zrotation Xrotation Yrotation
          JOINT leftEye
          {
            OFFSET 4.14528 8.04674 8.04672
            CHANNELS 3 Zrotation Xrotation Yrotation
            End Site
            {
              OFFSET 1 0 0
            }
          }
          JOINT rightEye
          {
            OFFSET -3.6576 8.04674 8.04672
            CHANNELS 3 Zrotation Xrotation Yrotation
            End Site
            {
              OFFSET 1 0 0
            }
          }
        }
      }
      JOINT rCollar
      {
        OFFSET -2.68224 19.2634 -4.8768
        CHANNELS 3 Zrotation Xrotation Yrotation
        JOINT rShldr
        {
          OFFSET -8.77824 -1.95073 1.46304
          CHANNELS 3 Zrotation Xrotation Yrotation
          JOINT rForeArm
          {
            OFFSET -28.1742 -1.7115 0.48768
            CHANNELS 3 Zrotation Xrotation Yrotation
            JOINT rHand
            {
              OFFSET -22.5879 0.773209 7.07136
              CHANNELS 3 Zrotation Xrotation Yrotation
              JOINT rThumb1
              {
                OFFSET -1.2192 -0.487915 3.41376
                CHANNELS 3 Zrotation Xrotation Yrotation
                JOINT rThumb2
                {
                  OFFSET -3.37035 -0.52449 3.41376
                  CHANNELS 3 Zrotation Xrotation Yrotation
                  End Site
                  {
                    OFFSET -1.78271 -1.18214 1.43049
                  }
                }
              }
              JOINT rIndex1
              {
                OFFSET -7.75947 0.938293 5.60832
                CHANNELS 3 Zrotation Xrotation Yrotation
                JOINT rIndex2
                {
                  OFFSET -2.54057 -0.884171 1.56538
                  CHANNELS 3 Zrotation Xrotation Yrotation
                  End Site
                  {
                    OFFSET -1.62519 -0.234802 1.16502
                  }
                }
              }
              JOINT rMid1
              {
                OFFSET -8.24714 1.18213 3.41376
                CHANNELS 3 Zrotation Xrotation Yrotation
                JOINT rMid2
                {
                  OFFSET -3.10165 -0.590103 1.0647
                  CHANNELS 3 Zrotation Xrotation Yrotation
                  End Site
                  {
                    OFFSET -2.48547 -0.328903 0.83742
                  }
                }
              }
              JOINT rRing1
              {
                OFFSET -8.82822 0.546677 1.51678
                CHANNELS 3 Zrotation Xrotation Yrotation
                JOINT rRing2
                {
                  OFFSET -2.60934 -0.819778 -0.0198488
                  CHANNELS 3 Zrotation Xrotation Yrotation
                  End Site
                  {
                    OFFSET -2.33842 -0.294052 0.168128
                  }
                }
              }
              JOINT rPinky1
              {
                OFFSET -8.27202 -0.0477905 -0.4584
                CHANNELS 3 Zrotation Xrotation Yrotation
                JOINT rPinky2
                {
                  OFFSET -1.82734 -0.647385 -0.700984
                  CHANNELS 3 Zrotation Xrotation Yrotation
                  End Site
                  {
                    OFFSET -1.69225 -0.51767 -0.607171
                  }
                }
              }
            }
          }
        }
      }
      JOINT lCollar
      {
        OFFSET 2.68224 19.2634 -4.8768
        CHANNELS 3 Zrotation Xrotation Yrotation
        JOINT lShldr
        {
          OFFSET 8.77824 -1.95073 1.46304
          CHANNELS 3 Zrotation Xrotation Yrotation
          JOINT lForeArm
          {
            OFFSET 28.1742 -1.7115 0.48768
            CHANNELS 3 Zrotation Xrotation Yrotation
            JOINT lHand
            {
              OFFSET 22.5879 0.773209 7.07136
              CHANNELS 3 Zrotation Xrotation Yrotation
              JOINT lThumb1
              {
                OFFSET 1.2192 -0.487915 3.41376
                CHANNELS 3 Zrotation Xrotation Yrotation
                JOINT lThumb2
                {
                  OFFSET 3.37035 -0.52449 3.41376
                  CHANNELS 3 Zrotation Xrotation Yrotation
                  End Site
                  {
                    OFFSET 1.78271 -1.18214 1.43049
                  }
                }
              }
              JOINT lIndex1
              {
                OFFSET 7.75947 0.938293 5.60832
                CHANNELS 3 Zrotation Xrotation Yrotation
                JOINT lIndex2
                {
                  OFFSET 2.54057 -0.884171 1.56538
                  CHANNELS 3 Zrotation Xrotation Yrotation
                  End Site
                  {
                    OFFSET 1.62519 -0.234802 1.16502
                  }
                }
              }
              JOINT lMid1
              {
                OFFSET 8.24714 1.18213 3.41376
                CHANNELS 3 Zrotation Xrotation Yrotation
                JOINT lMid2
                {
                  OFFSET 3.10165 -0.590103 1.0647
                  CHANNELS 3 Zrotation Xrotation Yrotation
                  End Site
                  {
                    OFFSET 2.48547 -0.328903 0.83742
                  }
                }
              }
              JOINT lRing1
              {
                OFFSET 8.82822 0.546677 1.51678
                CHANNELS 3 Zrotation Xrotation Yrotation
                JOINT lRing2
                {
                  OFFSET 2.60934 -0.819778 -0.0198488
                  CHANNELS 3 Zrotation Xrotation Yrotation
                  End Site
                  {
                    OFFSET 2.33842 -0.294052 0.168128
                  }
                }
              }
              JOINT lPinky1
              {
                OFFSET 8.27202 -0.0477905 -0.4584
                CHANNELS 3 Zrotation Xrotation Yrotation
                JOINT lPinky2
                {
                  OFFSET 1.82734 -0.647385 -0.700984
                  CHANNELS 3 Zrotation Xrotation Yrotation
                  End Site
                  {
                    OFFSET 1.69225 -0.51767 -0.607171
                  }
                }
              }
            }
          }
        }
      }
    }
  }
  JOINT rButtock
  {
    OFFSET -8.77824 4.35084 1.2192
    CHANNELS 3 Zrotation Xrotation Yrotation
    JOINT rThigh
    {
      OFFSET 0 -1.70687 -2.19456
      CHANNELS 3 Zrotation Xrotation Yrotation
      JOINT rShin
      {
        OFFSET 0 -36.8199 0.73152
        CHANNELS 3 Zrotation Xrotation Yrotation
        JOINT rFoot
        {
          OFFSET 0.73152 -45.1104 -5.12064
          CHANNELS 3 Zrotation Xrotation Yrotation
          End Site
          {
            OFFSET -1.1221 -3.69964 12.103
          }
        }
      }
    }
  }
  JOINT lButtock
  {
    OFFSET 8.77824 4.35084 1.2192
    CHANNELS 3 Zrotation Xrotation Yrotation
    JOINT lThigh
    {
      OFFSET 0 -1.70687 -2.19456
      CHANNELS 3 Zrotation Xrotation Yrotation
      JOINT lShin
      {
        OFFSET 0 -36.8199 0.73152
        CHANNELS 3 Zrotation Xrotation Yrotation
        JOINT lFoot
        {
          OFFSET -0.73152 -45.1104 -5.12064
          CHANNELS 3 Zrotation Xrotation Yrotation
          End Site
          {
            OFFSET 1.1221 -3.69964 12.103
          }
        }
      }
    }
  }
}
MOTION
Frames:	9
Frame Time:	0.00833333
98.9382 83.8008 85.6942 0.0 0.0 0.0 -2.04814 -0.0011253 -0.0554687 -0.56432 0.00679363 -0.0976938 -2.25783e-14 -1.59028e-15 2.48481e-17 -6.78881e-14 -6.36111e-15 2.64011e-17 -0.0 0.0 0.0 -0.0 0.0 0.0 -1.14321e-14 -3.99899e-17 1.98785e-16 -2.35051e-13 -6.4605e-16 1.98785e-16 -4.08835e-12 1.19668e-12 2.22639e-14 -4.68197e-11 -1.37673e-12 -1.17681e-13 -1.10437e-10 -3.93455e-13 -1.65389e-13 -1.90721e-10 -6.77458e-13 -2.94996e-13 -1.10432e-10 -3.89618e-13 -1.68569e-13 7.73091 5.47488 0.417314 -1.10437e-10 -3.93792e-13 -1.59028e-13 2.90554 0.965183 0.102902 -1.10424e-10 -3.92799e-13 -1.66184e-13 10.2786 0.731801 0.0259123 -1.10437e-10 -3.91606e-13 -1.59028e-13 2.22167 -0.733487 -0.20892 -1.14289e-14 -4.23194e-17 -1.49089e-16 -2.40983e-13 -7.33018e-16 -1.78906e-15 -4.0968e-12 -1.25274e-12 5.40694e-14 -4.68403e-11 1.07426e-12 -1.30403e-13 -1.10489e-10 -3.89762e-13 -1.7175e-13 -1.90803e-10 -6.77458e-13 -2.8625e-13 -1.10492e-10 -3.8604e-13 -1.62208e-13 -7.73091 5.47488 -0.417314 -1.1049e-10 -3.88823e-13 -1.7175e-13 -2.90554 0.965183 -0.102902 -1.10499e-10 -3.8932e-13 -1.7175e-13 -10.2786 0.731801 -0.0259123 -1.10487e-10 -3.90811e-13 -1.81292e-13 -2.22167 -0.733487 0.20892 -2.03217e-16 0.0 -3.88251e-19 -1.04898 -1.92716 0.000318104 -0.00908079 -2.07858 -0.0748906 -0.505756 3.9982 0.139384 2.03217e-16 0.0 3.88251e-19 -2.06478 -7.46952 0.204666 -0.00450091 7.96077 -0.117524 0.539493 -0.498689 -0.0508345
94.8292 82.4035 80.0717 -30.3006 -83.0689 34.0548 -0.403168 1.71951 0.0673831 0.668409 -0.585698 -0.0542665 -1.24968 2.57944 -1.16926 3.25982 -7.04376 -1.48491 -0.0 0.0 0.0 -0.0 0.0 0.0 1.30205e-14 8.54867e-13 -6.89794e-14 22.0358 -11.3182 1.38368 -1.21077 -0.368918 2.04184 0.117678 7.71473 1.05035 -3.94734e-10 3.20749e-10 -5.11417e-10 -6.92122e-10 5.49535e-10 -8.75828e-10 -3.94731e-10 3.20752e-10 -5.11423e-10 7.73091 5.47488 0.417314 -3.94734e-10 3.20749e-10 -5.11413e-10 2.90554 0.965183 0.102902 -3.94723e-10 3.2075e-10 -5.11419e-10 10.2786 0.731801 0.0259123 -3.94737e-10 3.20752e-10 -5.11412e-10 2.22167 -0.733487 -0.20892 1.29357e-14 8.5486e-13 -6.9299e-14 -22.0926 1.90129 -2.07894 2.12501 -0.74737 -3.51823 -0.031792 3.9591 -0.551637 -1.13792e-10 -7.13919e-10 -8.65569e-11 -1.99179e-10 -1.23475e-09 -1.4961e-10 -1.13795e-10 -7.13923e-10 -8.65496e-11 -7.73091 5.47488 -0.417314 -1.13792e-10 -7.13917e-10 -8.6554e-11 -2.90554 0.965183 -0.102902 -1.13801e-10 -7.13917e-10 -8.65552e-11 -10.2786 0.731801 -0.0259123 -1.13791e-10 -7.13918e-10 -8.65646e-11 -2.22167 -0.733487 0.20892 -2.03217e-16 0.0 -3.88251e-19 -0.0366575 -5.41531 -0.326386 0.0401921 6.78417 0.130739 -1.13399 -1.64915 -5.45117 2.03217e-16 0.0 3.88251e-19 0.511352 -10.4089 -0.217362 -0.00890909 14.9986 -0.228017 0.543043 -5.06175 0.574919
94.9435 82.4361 80.2805 -29.2251 -82.8686 32.9957 1.33615 3.52955 0.175148 1.97219 -1.21128 -0.0148827 -2.44958 5.31698 -2.40302 6.30043 -14.4632 -3.1132 -0.0 0.0 0.0 -0.0 0.0 0.0 3.99168e-14 1.80156e-12 -1.45439e-13 46.0307 -23.389 3.12119 -2.45434 -0.754352 4.18744 -0.0798305 16.0009 2.24628 -7.08408e-10 6.9932e-10 -1.14275e-09 -1.24627e-09 1.19848e-09 -1.95802e-09 -7.08406e-10 6.99321e-10 -1.14276e-09 7.73091 5.47488 0.417314 -7.08408e-10 6.99319e-10 -1.14275e-09 2.90554 0.965183 0.102902 -7.08397e-10 6.9932e-10 -1.14275e-09 10.2786 0.731801 0.0259123 -7.08413e-10 6.99323e-10 -1.14274e-09 2.22167 -0.733487 -0.20892 3.97365e-14 1.80155e-12 -1.45728e-13 -45.3026 3.89203 -4.29932 4.26833 -1.52637 -7.23359 0.0182132 8.1277 -1.14145 -1.31439e-10 -1.47142e-09 -1.25522e-10 -2.31904e-10 -2.545e-09 -2.16833e-10 -1.31441e-10 -1.47143e-09 -1.25518e-10 -7.73091 5.47488 -0.417314 -1.31439e-10 -1.47141e-09 -1.25516e-10 -2.90554 0.965183 -0.102902 -1.31447e-10 -1.47141e-09 -1.25519e-10 -10.2786 0.731801 -0.0259123 -1.3144e-10 -1.47141e-09 -1.25528e-10 -2.22167 -0.733487 0.20892 -2.03217e-16 0.0 -3.88251e-19 1.02081 -9.08437 -0.660939 0.0210528 16.1402 0.360617 -3.00032 -7.5004 -11.4577 2.03217e-16 0.0 3.88251e-19 3.2183 -13.5083 -0.661831 0.0186407 22.4465 -0.357177 0.655025 -9.8988 1.24173
95.1395 82.4473 80.4417 -30.1704 -82.815 34.1537 2.86456 5.1607 0.31427 3.13656 -1.77068 0.0326122 -3.43095 7.72537 -3.53637 8.6187 -21.0724 -4.73865 -0.0 0.0 0.0 -0.0 0.0 0.0 6.19257e-14 2.56468e-12 -2.07336e-13 68.0299 -33.8669 4.90387 -3.5536 -1.10113 6.12652 -0.557984 23.1117 3.39531 -9.6333e-10 9.63035e-10 -1.53392e-09 -1.69493e-09 1.64996e-09 -2.62689e-09 -9.6333e-10 9.63035e-10 -1.53393e-09 7.73091 5.47488 0.417314 -9.6333e-10 9.63034e-10 -1.53392e-09 2.90554 0.965183 0.102902 -9.63321e-10 9.63035e-10 -1.53392e-09 10.2786 0.731801 0.0259123 -9.63338e-10 9.63039e-10 -1.53392e-09 2.22167 -0.733487 -0.20892 6.16651e-14 2.56466e-12 -2.07599e-13 -65.8631 5.67377 -6.2642 6.10123 -2.20832 -10.5617 0.137551 11.8728 -1.68706 -1.20397e-10 -2.14098e-09 -2.59327e-10 -2.15931e-10 -3.7029e-09 -4.48257e-10 -1.20399e-10 -2.141e-09 -2.59324e-10 -7.73091 5.47488 -0.417314 -1.20396e-10 -2.14097e-09 -2.59318e-10 -2.90554 0.965183 -0.102902 -1.20404e-10 -2.14097e-09 -2.59322e-10 -10.2786 0.731801 -0.0259123 -1.204e-10 -2.14097e-09 -2.59331e-10 -2.22167 -0.733487 0.20892 -2.03217e-16 0.0 -3.88251e-19 1.86612 -12.39 -0.998687 -0.0661738 24.5086 0.592543 -5.70674 -12.4155 -17.0349 2.03217e-16 0.0 3.88251e-19 5.52867 -16.285 -1.09099 0.0757468 29.0738 -0.489664 0.85706 -14.1813 1.87691
95.3313 82.4523 80.5818 -31.4194 -82.7598 35.5916 3.87458 6.34461 0.531219 3.95116 -2.16463 0.100374 -4.08986 9.32284 -4.39132 9.94561 -25.7084 -6.09819 -0.0 0.0 0.0 -0.0 0.0 0.0 7.17162e-14 2.86887e-12 -2.32827e-13 83.351 -40.4693 5.94768 -4.34573 -1.35636 7.54838 -1.01218 27.3191 4.16321 -1.07137e-09 9.39612e-10 -1.32469e-09 -1.87983e-09 1.60779e-09 -2.26249e-09 -1.07137e-09 9.39611e-10 -1.3247e-09 7.73091 5.47488 0.417314 -1.07137e-09 9.39612e-10 -1.32469e-09 2.90554 0.965183 0.102902 -1.07137e-09 9.39612e-10 -1.3247e-09 10.2786 0.731801 0.0259123 -1.07138e-09 9.39616e-10 -1.32469e-09 2.22167 -0.733487 -0.20892 7.14135e-14 2.86885e-12 -2.33075e-13 -80.0942 6.96227 -7.56453 7.3489 -2.67942 -12.9152 0.267404 14.5635 -2.09247 -3.76323e-11 -2.5907e-09 -6.3023e-10 -7.82146e-11 -4.47996e-09 -1.09018e-09 -3.76347e-11 -2.59072e-09 -6.30227e-10 -7.73091 5.47488 -0.417314 -3.76306e-11 -2.5907e-09 -6.30221e-10 -2.90554 0.965183 -0.102902 -3.7638e-11 -2.5907e-09 -6.30225e-10 -10.2786 0.731801 -0.0259123 -3.76345e-11 -2.5907e-09 -6.30233e-10 -2.22167 -0.733487 0.20892 -2.03217e-16 0.0 -3.88251e-19 2.2567 -14.7883 -1.3299 -0.174964 30.409 0.77958 -8.14706 -15.5282 -21.0878 2.03217e-16 0.0 3.88251e-19 6.93776 -18.2574 -1.45927 0.136736 33.6501 -0.595551 1.06982 -17.0834 2.38623
95.5049 82.4834 80.7882 -31.2952 -82.6879 35.6059 4.11783 6.88734 0.894401 4.286 -2.32362 0.206871 -4.41181 9.76996 -4.84979 10.2983 -27.5955 -6.90772 -0.0 0.0 0.0 -0.0 0.0 0.0 6.39538e-14 2.44179e-12 -1.97153e-13 88.2955 -41.6301 5.24152 -4.7189 -1.48132 8.22348 -1.04106 27.1511 4.14453 -9.93469e-10 3.60655e-10 9.33314e-11 -1.72371e-09 6.0936e-10 1.84735e-10 -9.93469e-10 3.60654e-10 9.33186e-11 7.73091 5.47488 0.417314 -9.93469e-10 3.60655e-10 9.33273e-11 2.90554 0.965183 0.102902 -9.93462e-10 3.60655e-10 9.33277e-11 10.2786 0.731801 0.0259123 -9.93478e-10 3.60658e-10 9.33364e-11 2.22167 -0.733487 -0.20892 6.36624e-14 2.44177e-12 -1.97408e-13 -85.6001 7.5575 -7.93303 7.83757 -2.86512 -13.8583 0.341151 15.8919 -2.29706 1.63797e-10 -2.81478e-09 -1.61339e-09 2.58243e-10 -4.86485e-09 -2.7915e-09 1.63793e-10 -2.8148e-09 -1.61338e-09 -7.73091 5.47488 -0.417314 1.63798e-10 -2.81478e-09 -1.61338e-09 -2.90554 0.965183 -0.102902 1.63792e-10 -2.81478e-09 -1.61339e-09 -10.2786 0.731801 -0.0259123 1.63796e-10 -2.81477e-09 -1.61339e-09 -2.22167 -0.733487 0.20892 -2.03217e-16 0.0 -3.88251e-19 1.98976 -15.9353 -1.66737 -0.232503 32.8627 0.859212 -9.13521 -16.5134 -22.6466 2.03217e-16 0.0 3.88251e-19 7.06796 -19.0996 -1.75328 0.163886 35.3324 -0.639185 1.21353 -18.0354 2.74031
95.6755 82.5163 81.1034 -28.8876 -82.8517 33.3432 3.81901 6.97251 1.35978 4.27716 -2.31495 0.34052 -4.5188 9.39935 -5.01884 10.0828 -27.5353 -7.25052 -0.0 0.0 0.0 -0.0 0.0 0.0 4.36749e-14 1.49661e-12 -1.18277e-13 85.8645 -38.8847 3.28235 -4.79973 -1.51471 8.36602 -0.762672 23.8744 3.56453 -7.81805e-10 -6.07801e-10 2.35724e-09 -1.32266e-09 -1.05949e-09 4.08939e-09 -7.81803e-10 -6.07801e-10 2.35723e-09 7.73091 5.47488 0.417314 -7.81806e-10 -6.078e-10 2.35724e-09 2.90554 0.965183 0.102902 -7.81799e-10 -6.078e-10 2.35724e-09 10.2786 0.731801 0.0259123 -7.81812e-10 -6.07799e-10 2.35725e-09 2.22167 -0.733487 -0.20892 4.3433e-14 1.4966e-12 -1.18553e-13 -84.9044 7.66408 -7.62971 7.8051 -2.85425 -13.7946 0.355052 16.2429 -2.35048 4.49117e-10 -2.87377e-09 -3.02053e-09 7.35311e-10 -4.96291e-09 -5.22644e-09 4.4911e-10 -2.87378e-09 -3.02052e-09 -7.73091 5.47488 -0.417314 4.49117e-10 -2.87377e-09 -3.02053e-09 -2.90554 0.965183 -0.102902 4.49112e-10 -2.87377e-09 -3.02053e-09 -10.2786 0.731801 -0.0259123 4.49119e-10 -2.87377e-09 -3.02053e-09 -2.22167 -0.733487 0.20892 -2.03217e-16 0.0 -3.88251e-19 1.26798 -16.1876 -2.00407 -0.229993 32.8543 0.846676 -8.85116 -16.0963 -22.3387 2.03217e-16 0.0 3.88251e-19 6.30083 -19.1353 -1.98814 0.156386 34.9487 -0.63084 1.2765 -17.597 2.96928
95.8541 82.5642 81.488 -24.4318 -83.214 29.0262 3.37874 6.8983 1.80528 4.11349 -2.24449 0.468407 -4.52205 8.73977 -5.05205 9.67043 -26.742 -7.35705 -0.0 0.0 0.0 -0.0 0.0 0.0 1.91051e-14 4.86196e-13 -3.84314e-14 80.9276 -34.6721 1.08452 -4.7848 -1.52068 8.33072 -0.500882 19.8846 2.90827 -4.85152e-10 -1.48639e-09 4.37034e-09 -7.7849e-10 -2.57226e-09 7.55906e-09 -4.85149e-10 -1.48639e-09 4.37033e-09 7.73091 5.47488 0.417314 -4.85153e-10 -1.48639e-09 4.37033e-09 2.90554 0.965183 0.102902 -4.85147e-10 -1.48639e-09 4.37034e-09 10.2786 0.731801 0.0259123 -4.85157e-10 -1.48639e-09 4.37035e-09 2.22167 -0.733487 -0.20892 1.89277e-14 4.86191e-13 -3.87277e-14 -81.7212 7.61167 -7.03093 7.60173 -2.78464 -13.3945 0.334038 16.0253 -2.31511 7.38791e-10 -2.73532e-09 -4.14875e-09 1.22334e-09 -4.72061e-09 -7.17933e-09 7.38782e-10 -2.73533e-09 -4.14873e-09 -7.73091 5.47488 -0.417314 7.3879e-10 -2.73533e-09 -4.14875e-09 -2.90554 0.965183 -0.102902 7.38786e-10 -2.73533e-09 -4.14875e-09 -10.2786 0.731801 -0.0259123 7.38797e-10 -2.73533e-09 -4.14875e-09 -2.22167 -0.733487 0.20892 -2.03217e-16 0.0 -3.88251e-19 0.460044 -16.0526 -2.29816 -0.202907 31.8493 0.797578 -8.10124 -15.1272 -21.3403 2.03217e-16 0.0 3.88251e-19 5.27429 -18.8569 -2.15824 0.136256 33.7755 -0.602383 1.27113 -16.6378 3.05846
96.0013 82.5739 81.755 -23.144 -83.2384 27.7355 3.1891 6.96321 2.10988 3.98481 -2.21816 0.557655 -4.52754 8.31916 -5.10304 9.38795 -26.4229 -7.48009 -0.0 0.0 0.0 -0.0 0.0 0.0 -1.53002e-15 -1.36565e-13 1.49089e-16 77.7965 -31.4972 -0.725974 -4.86863 -1.56295 8.47239 -0.395202 17.5908 2.55379 -1.52279e-10 -1.79575e-09 5.0359e-09 -1.9301e-10 -3.10248e-09 8.70133e-09 -1.52275e-10 -1.79575e-09 5.03589e-09 7.73091 5.47488 0.417314 -1.5228e-10 -1.79575e-09 5.0359e-09 2.90554 0.965183 0.102902 -1.52275e-10 -1.79575e-09 5.0359e-09 10.2786 0.731801 0.0259123 -1.52283e-10 -1.79575e-09 5.03592e-09 2.22167 -0.733487 -0.20892 -1.65063e-15 -1.36565e-13 -1.49089e-16 -79.765 7.73059 -6.51349 7.57647 -2.79373 -13.3286 0.310029 15.6474 -2.25604 9.53282e-10 -2.36709e-09 -4.29515e-09 1.59269e-09 -4.08442e-09 -7.43448e-09 9.53272e-10 -2.36708e-09 -4.29512e-09 -7.73091 5.47488 -0.417314 9.53281e-10 -2.36709e-09 -4.29515e-09 -2.90554 0.965183 -0.102902 9.53277e-10 -2.36709e-09 -4.29515e-09 -10.2786 0.731801 -0.0259123 9.53289e-10 -2.36709e-09 -4.29515e-09 -2.22167 -0.733487 0.20892 -2.03217e-16 0.0 -3.88251e-19 -0.077861 -16.0373 -2.51163 -0.188513 31.3129 0.768998 -7.66989 -14.4651 -20.8161 2.03217e-16 0.0 3.88251e-19 4.61668 -18.7568 -2.26124 0.125178 33.0892 -0.585385 1.22809 -16.0265 2.99786
